<svg width="672" height="690" viewBox="0 0 672 690" fill="none" xmlns="http://www.w3.org/2000/svg">
<g clip-path="url(#clip0_27_1141)">
<mask id="mask0_27_1141" style="mask-type:alpha" maskUnits="userSpaceOnUse" x="15" y="127" width="536" height="526">
<path d="M530.68 214.475C557.409 267.676 551.768 335.371 543.187 389.839C534.914 444.729 524.008 486.812 504.689 523.532C485.729 560.304 458.407 591.343 423.947 613.063C389.897 634.465 348.35 646.496 300.181 650.788C251.961 655.449 196.4 652.267 144.752 625.937C93.0532 599.976 44.9079 550.815 25.087 489.96C5.67568 428.788 14.5888 355.921 53.4212 310.368C91.844 265.131 160.186 247.207 220.357 214.167C280.887 181.178 333.296 132.704 389.255 127.662C445.162 122.989 504.26 161.696 530.68 214.475Z" fill="#FFE55E"/>
</mask>
<g mask="url(#mask0_27_1141)">
<path d="M59.3476 428.708C61.3107 441.588 73.2923 442.319 85.0604 452.561C102.628 467.124 115.44 461.892 116.989 451.226C118.539 440.561 105.883 433.417 104.701 422.194C102.907 410.918 113.373 400.715 108.961 391.116C104.884 381.229 91.1181 379.706 77.7073 398.864C69.1938 411.462 57.9975 415.883 59.3476 428.708Z" fill="white"/>
<path d="M561.523 520.633C574.188 507.148 563.154 492.992 563.121 470.753C562.245 438.191 543.625 428.317 529.993 435.902C516.361 443.487 520.789 464.016 509.229 475.169C498.216 487.06 476.28 484.181 469.76 497.558C462.582 510.81 474.485 527.672 509.494 526.036C532.212 524.617 548.312 533.379 561.523 520.633Z" fill="white"/>
<path d="M60.0149 519.781C73.0486 506.731 89.9548 503.807 98.2886 511.876C106.108 520.39 102.177 538.151 89.6579 550.756C76.6242 563.806 59.7179 566.73 51.3841 558.661C42.6207 550.065 46.9811 532.831 60.0149 519.781Z" fill="white"/>
<path d="M53.1014 364.056C69.0032 372.794 86.2695 371.367 91.4993 360.56C97.1591 350.281 88.5524 334.345 72.6506 325.607C56.7488 316.868 39.4825 318.296 34.2528 329.103C29.023 339.909 37.1996 355.318 53.1014 364.056Z" fill="white"/>
<path d="M22.4277 456.365C40.5354 450.609 58.2239 455.093 61.9272 467.163C65.6305 479.233 53.8842 493.865 35.7765 499.621C17.6688 505.378 -0.019788 500.893 -3.72307 488.823C-7.42636 476.754 4.32 462.121 22.4277 456.365Z" fill="white"/>
<path d="M13.4194 434.617C32.3978 435.299 48.0167 425.406 48.6058 413.219C48.765 400.505 33.9845 389.91 15.0061 389.228C-3.97226 388.546 -19.5912 398.438 -20.1803 410.626C-20.3395 423.34 -5.55901 433.935 13.4194 434.617Z" fill="white"/>
</g>
</g>
<defs>
<clipPath id="clip0_27_1141">
<rect width="670.778" height="689.946" fill="white" transform="translate(0.419861)"/>
</clipPath>
</defs>
</svg>
