<svg width="1439" height="765" viewBox="0 0 1439 765" fill="none" xmlns="http://www.w3.org/2000/svg">
<path d="M-228.833 67.5652C-250.115 25.4931 -162.359 11.8556 -18.7981 11.7457C-12.9161 4.51216 -9.59474 0 -9.59474 0L-11.8371 11.7508C311.973 12.4658 908.537 79.1404 1189.13 46.9178C1597.69 0 1318.05 539.852 1411.69 518.573C1505.33 497.294 1350.39 784.559 1044.69 763.073C738.985 741.587 177.067 506.423 175.033 620.983C172.998 735.543 -124.033 599.704 -124.033 599.704L-11.8371 11.7508C-14.1717 11.7457 -16.4921 11.744 -18.7981 11.7457C-52.4708 53.1557 -170.06 183.752 -228.833 67.5652Z" fill="#FFF2B3" fill-opacity="0.34"/>
</svg>
