<svg width="174" height="152" viewBox="0 0 174 152" fill="none" xmlns="http://www.w3.org/2000/svg">
<path d="M0.500019 64.8813C0.500019 64.8813 -7.49998 27.8671 47.5 5.36707C102.5 -17.1329 209 49.8671 162.5 98.3671C116 146.867 90.5 165.367 47.5 141.367C4.50002 117.367 0.500019 64.8813 0.500019 64.8813Z" fill="#124C5F"/>
<path d="M37.76 110.881C37.6533 110.881 37.5627 110.849 37.488 110.785C37.424 110.711 37.392 110.62 37.392 110.513V100.049C37.392 99.9427 37.424 99.8573 37.488 99.7933C37.5627 99.7187 37.6533 99.6813 37.76 99.6813H38.608C38.7147 99.6813 38.8 99.7187 38.864 99.7933C38.9387 99.8573 38.976 99.9427 38.976 100.049V109.489H44.288C44.4053 109.489 44.496 109.527 44.56 109.601C44.6347 109.665 44.672 109.756 44.672 109.873V110.513C44.672 110.62 44.6347 110.711 44.56 110.785C44.4853 110.849 44.3947 110.881 44.288 110.881H37.76ZM49.3558 111.041C48.2571 111.041 47.3771 110.705 46.7158 110.033C46.0651 109.351 45.7078 108.423 45.6438 107.249L45.6278 106.705L45.6438 106.177C45.7184 105.025 46.0811 104.108 46.7318 103.425C47.3931 102.743 48.2624 102.401 49.3398 102.401C50.5238 102.401 51.4411 102.78 52.0918 103.537C52.7424 104.284 53.0677 105.297 53.0677 106.577V106.849C53.0677 106.956 53.0304 107.047 52.9558 107.121C52.8918 107.185 52.8064 107.217 52.6998 107.217H47.1638V107.361C47.1958 108.055 47.4038 108.647 47.7878 109.137C48.1824 109.617 48.6998 109.857 49.3398 109.857C49.8304 109.857 50.2304 109.761 50.5398 109.569C50.8598 109.367 51.0944 109.159 51.2438 108.945C51.3398 108.817 51.4091 108.743 51.4518 108.721C51.5051 108.689 51.5958 108.673 51.7238 108.673H52.5078C52.6038 108.673 52.6838 108.7 52.7478 108.753C52.8118 108.807 52.8438 108.881 52.8438 108.977C52.8438 109.212 52.6944 109.495 52.3958 109.825C52.1078 110.156 51.6971 110.444 51.1638 110.689C50.6411 110.924 50.0384 111.041 49.3558 111.041ZM51.5478 106.113V106.065C51.5478 105.329 51.3451 104.732 50.9398 104.273C50.5451 103.804 50.0118 103.569 49.3398 103.569C48.6678 103.569 48.1344 103.804 47.7398 104.273C47.3558 104.732 47.1638 105.329 47.1638 106.065V106.113H51.5478ZM57.3009 111.041C56.7782 111.041 56.2929 110.935 55.8449 110.721C55.3969 110.508 55.0395 110.22 54.7729 109.857C54.5169 109.484 54.3889 109.073 54.3889 108.625C54.3889 107.921 54.6769 107.345 55.2529 106.897C55.8395 106.439 56.6289 106.14 57.6209 106.001L60.0049 105.665V105.201C60.0049 104.113 59.3809 103.569 58.1329 103.569C57.6635 103.569 57.2795 103.671 56.9809 103.873C56.6822 104.065 56.4582 104.295 56.3089 104.561C56.2769 104.657 56.2342 104.727 56.1809 104.769C56.1382 104.812 56.0742 104.833 55.9889 104.833H55.3009C55.2049 104.833 55.1195 104.801 55.0449 104.737C54.9809 104.663 54.9489 104.577 54.9489 104.481C54.9595 104.225 55.0769 103.937 55.3009 103.617C55.5355 103.287 55.8929 103.004 56.3729 102.769C56.8529 102.524 57.4449 102.401 58.1489 102.401C59.3435 102.401 60.2022 102.684 60.7249 103.249C61.2475 103.804 61.5089 104.497 61.5089 105.329V110.513C61.5089 110.62 61.4715 110.711 61.3969 110.785C61.3329 110.849 61.2475 110.881 61.1409 110.881H60.4049C60.2982 110.881 60.2075 110.849 60.1329 110.785C60.0689 110.711 60.0369 110.62 60.0369 110.513V109.825C59.8022 110.167 59.4609 110.455 59.0129 110.689C58.5649 110.924 57.9942 111.041 57.3009 111.041ZM57.6369 109.841C58.3302 109.841 58.8955 109.617 59.3329 109.169C59.7809 108.711 60.0049 108.055 60.0049 107.201V106.753L58.1489 107.025C57.3915 107.132 56.8209 107.313 56.4369 107.569C56.0529 107.815 55.8609 108.129 55.8609 108.513C55.8609 108.94 56.0369 109.271 56.3889 109.505C56.7409 109.729 57.1569 109.841 57.6369 109.841ZM64.177 110.881C64.0703 110.881 63.9797 110.849 63.905 110.785C63.841 110.711 63.809 110.62 63.809 110.513V102.945C63.809 102.839 63.841 102.748 63.905 102.673C63.9797 102.599 64.0703 102.561 64.177 102.561H64.913C65.0197 102.561 65.1103 102.599 65.185 102.673C65.2597 102.748 65.297 102.839 65.297 102.945V103.649C65.7343 102.924 66.481 102.561 67.537 102.561H68.161C68.2677 102.561 68.353 102.599 68.417 102.673C68.4917 102.737 68.529 102.823 68.529 102.929V103.585C68.529 103.692 68.4917 103.777 68.417 103.841C68.353 103.905 68.2677 103.937 68.161 103.937H67.201C66.625 103.937 66.1717 104.108 65.841 104.449C65.5103 104.78 65.345 105.233 65.345 105.809V110.513C65.345 110.62 65.3077 110.711 65.233 110.785C65.1583 110.849 65.0677 110.881 64.961 110.881H64.177ZM70.2551 110.881C70.1485 110.881 70.0578 110.849 69.9831 110.785C69.9191 110.711 69.8871 110.62 69.8871 110.513V102.929C69.8871 102.823 69.9191 102.737 69.9831 102.673C70.0578 102.599 70.1485 102.561 70.2551 102.561H71.0071C71.1138 102.561 71.1991 102.599 71.2631 102.673C71.3378 102.737 71.3751 102.823 71.3751 102.929V103.633C71.6845 103.239 72.0471 102.935 72.4631 102.721C72.8898 102.508 73.4178 102.401 74.0471 102.401C75.0711 102.401 75.8658 102.732 76.4311 103.393C77.0071 104.044 77.2951 104.913 77.2951 106.001V110.513C77.2951 110.62 77.2578 110.711 77.1831 110.785C77.1191 110.849 77.0338 110.881 76.9271 110.881H76.1271C76.0205 110.881 75.9298 110.849 75.8551 110.785C75.7911 110.711 75.7591 110.62 75.7591 110.513V106.081C75.7591 105.324 75.5725 104.737 75.1991 104.321C74.8365 103.905 74.3085 103.697 73.6151 103.697C72.9431 103.697 72.4098 103.911 72.0151 104.337C71.6205 104.753 71.4231 105.335 71.4231 106.081V110.513C71.4231 110.62 71.3858 110.711 71.3111 110.785C71.2471 110.849 71.1618 110.881 71.0551 110.881H70.2551ZM83.8801 110.881C83.7735 110.881 83.6828 110.849 83.6081 110.785C83.5441 110.711 83.5121 110.62 83.5121 110.513V102.929C83.5121 102.823 83.5441 102.737 83.6081 102.673C83.6828 102.599 83.7735 102.561 83.8801 102.561H84.6001C84.7068 102.561 84.7921 102.599 84.8561 102.673C84.9308 102.737 84.9681 102.823 84.9681 102.929V103.489C85.5228 102.764 86.2961 102.401 87.2881 102.401C88.4721 102.401 89.3095 102.892 89.8001 103.873C90.0561 103.425 90.4188 103.068 90.8881 102.801C91.3575 102.535 91.8855 102.401 92.4721 102.401C93.3468 102.401 94.0615 102.7 94.6161 103.297C95.1708 103.895 95.4481 104.759 95.4481 105.889V110.513C95.4481 110.62 95.4108 110.711 95.3361 110.785C95.2721 110.849 95.1868 110.881 95.0801 110.881H94.3281C94.2215 110.881 94.1308 110.849 94.0561 110.785C93.9921 110.711 93.9601 110.62 93.9601 110.513V106.033C93.9601 105.201 93.7841 104.604 93.4321 104.241C93.0908 103.879 92.6375 103.697 92.0721 103.697C91.5708 103.697 91.1388 103.884 90.7761 104.257C90.4135 104.62 90.2321 105.212 90.2321 106.033V110.513C90.2321 110.62 90.1948 110.711 90.1201 110.785C90.0561 110.849 89.9708 110.881 89.8641 110.881H89.1121C89.0055 110.881 88.9148 110.849 88.8401 110.785C88.7761 110.711 88.7441 110.62 88.7441 110.513V106.033C88.7441 105.201 88.5628 104.604 88.2001 104.241C87.8481 103.879 87.4001 103.697 86.8561 103.697C86.3548 103.697 85.9228 103.884 85.5601 104.257C85.1975 104.62 85.0161 105.207 85.0161 106.017V110.513C85.0161 110.62 84.9788 110.711 84.9041 110.785C84.8401 110.849 84.7548 110.881 84.6481 110.881H83.8801ZM101.139 111.041C99.9655 111.041 99.0535 110.711 98.4029 110.049C97.7629 109.388 97.4215 108.508 97.3789 107.409L97.3629 106.721L97.3789 106.033C97.4215 104.945 97.7682 104.071 98.4189 103.409C99.0695 102.737 99.9762 102.401 101.139 102.401C102.302 102.401 103.208 102.737 103.859 103.409C104.51 104.071 104.856 104.945 104.899 106.033C104.91 106.151 104.915 106.38 104.915 106.721C104.915 107.063 104.91 107.292 104.899 107.409C104.856 108.508 104.51 109.388 103.859 110.049C103.219 110.711 102.312 111.041 101.139 111.041ZM101.139 109.809C101.811 109.809 102.339 109.596 102.723 109.169C103.118 108.743 103.331 108.129 103.363 107.329C103.374 107.223 103.379 107.02 103.379 106.721C103.379 106.423 103.374 106.22 103.363 106.113C103.331 105.313 103.118 104.7 102.723 104.273C102.339 103.847 101.811 103.633 101.139 103.633C100.467 103.633 99.9335 103.847 99.5389 104.273C99.1442 104.7 98.9362 105.313 98.9149 106.113L98.8989 106.721L98.9149 107.329C98.9362 108.129 99.1442 108.743 99.5389 109.169C99.9335 109.596 100.467 109.809 101.139 109.809ZM107.286 110.881C107.18 110.881 107.089 110.849 107.014 110.785C106.95 110.711 106.918 110.62 106.918 110.513V102.945C106.918 102.839 106.95 102.748 107.014 102.673C107.089 102.599 107.18 102.561 107.286 102.561H108.022C108.129 102.561 108.22 102.599 108.294 102.673C108.369 102.748 108.406 102.839 108.406 102.945V103.649C108.844 102.924 109.59 102.561 110.646 102.561H111.27C111.377 102.561 111.462 102.599 111.526 102.673C111.601 102.737 111.638 102.823 111.638 102.929V103.585C111.638 103.692 111.601 103.777 111.526 103.841C111.462 103.905 111.377 103.937 111.27 103.937H110.31C109.734 103.937 109.281 104.108 108.95 104.449C108.62 104.78 108.454 105.233 108.454 105.809V110.513C108.454 110.62 108.417 110.711 108.342 110.785C108.268 110.849 108.177 110.881 108.07 110.881H107.286ZM116.168 111.041C115.07 111.041 114.19 110.705 113.528 110.033C112.878 109.351 112.52 108.423 112.456 107.249L112.44 106.705L112.456 106.177C112.531 105.025 112.894 104.108 113.544 103.425C114.206 102.743 115.075 102.401 116.152 102.401C117.336 102.401 118.254 102.78 118.904 103.537C119.555 104.284 119.88 105.297 119.88 106.577V106.849C119.88 106.956 119.843 107.047 119.768 107.121C119.704 107.185 119.619 107.217 119.512 107.217H113.976V107.361C114.008 108.055 114.216 108.647 114.6 109.137C114.995 109.617 115.512 109.857 116.152 109.857C116.643 109.857 117.043 109.761 117.352 109.569C117.672 109.367 117.907 109.159 118.056 108.945C118.152 108.817 118.222 108.743 118.264 108.721C118.318 108.689 118.408 108.673 118.536 108.673H119.32C119.416 108.673 119.496 108.7 119.56 108.753C119.624 108.807 119.656 108.881 119.656 108.977C119.656 109.212 119.507 109.495 119.208 109.825C118.92 110.156 118.51 110.444 117.976 110.689C117.454 110.924 116.851 111.041 116.168 111.041ZM118.36 106.113V106.065C118.36 105.329 118.158 104.732 117.752 104.273C117.358 103.804 116.824 103.569 116.152 103.569C115.48 103.569 114.947 103.804 114.552 104.273C114.168 104.732 113.976 105.329 113.976 106.065V106.113H118.36Z" fill="white"/>
<path d="M90.2031 58.2192C90.1707 58.5329 89.9653 58.8759 89.4915 59.2245C84.8454 62.6429 80.1994 66.0612 75.5533 69.4795C74.5614 70.2093 72.2077 70.3792 72.2077 68.6621C72.2077 62.3369 72.2077 56.0117 72.2077 49.6865C72.2077 48.1327 74.734 47.7498 75.7451 48.3824C80.3911 51.2893 85.0372 54.1962 89.6832 57.103C90.2152 57.4359 90.332 57.8349 90.2031 58.2192ZM106 63.6107C104.528 96.3484 45.0339 89.5663 51.4896 55.1041C54.1983 40.6439 67.1474 33.0391 81.375 33.9555C97.39 34.9871 105.709 48.4955 105.999 63.3941C105.999 63.4316 105.973 63.4628 105.968 63.499C105.973 63.5395 106.002 63.5654 106 63.6107ZM103.014 64.0344C102.773 53.4885 98.7398 42.099 88.3337 37.5661C74.5417 31.5584 58.2921 38.644 54.7872 53.2453C51.6523 66.3049 58.6238 77.8837 71.3796 82.0718C84.9773 86.5364 102.271 79.511 103.014 64.0344Z" fill="white"/>
</svg>
