<svg width="58" height="58" viewBox="0 0 58 58" fill="none" xmlns="http://www.w3.org/2000/svg">
<circle cx="29" cy="29" r="29" fill="#C4C4C4"/>
<g clip-path="url(#clip0_8900_6)">
<path d="M32.6319 21.3673C32.673 21.321 32.8649 21.17 33.6187 21.17L36.0902 21.1691C36.8942 21.1691 37.5481 20.5163 37.5481 19.7138V15.4026C37.5481 14.6015 36.8952 13.9487 36.0925 13.9474L32.4214 13.9414C30.1556 13.9414 28.2295 14.6873 26.8512 16.0989C25.4791 17.504 24.7538 19.4655 24.7538 21.771V24.0962H21.9454C21.1414 24.0962 20.4873 24.749 20.4873 25.5515V30.1946C20.4873 30.997 21.1414 31.6498 21.9454 31.6498H24.7538V42.4862C24.7538 43.2887 25.4078 43.9415 26.2118 43.9415H31.0255C31.8295 43.9415 32.4835 43.2887 32.4835 42.4862V31.65H35.9164C36.7204 31.65 37.3742 30.997 37.3742 30.195L37.3761 25.5517C37.3761 25.0246 37.0887 24.5368 36.6259 24.2789C36.4115 24.1594 36.162 24.0962 35.9047 24.0962H32.4835V22.2592C32.4835 21.6605 32.5643 21.4437 32.6319 21.3673Z" fill="#5B5B5B"/>
</g>
<defs>
<clipPath id="clip0_8900_6">
<rect width="30" height="30" fill="white" transform="translate(14 14)"/>
</clipPath>
</defs>
</svg>
